<svg xmlns="http://www.w3.org/2000/svg" viewBox="0 0 100 125"><path d="M79.236 48.382l.658-.06c-.788-8.699-8.871-15.436-18.464-15.436l-.262.001c-4.615.071-8.927 1.653-12.273 4.446a19.999 19.999 0 0 0-8.155-1.635c-3.933.053-7.573 1.193-10.561 3.13L23.373 10.71l-2.916.706 7.131 29.46a16.764 16.764 0 0 0-3.239 4.194L13.462 21.673l-2.72 1.266 11.839 25.443H10.603v1.5c0 21.729 17.671 39.407 39.393 39.407 21.727 0 39.402-17.678 39.402-39.407v-1.5H79.236zM61.212 35.888l.224-.001c7.967 0 14.678 5.438 15.44 12.495H58.938c-1.092-3.894-3.678-7.224-7.151-9.494 2.666-1.885 5.939-2.946 9.425-3zM40.779 38.7c6.995-.095 13.013 3.982 15.02 9.683H26.172c1.999-5.602 7.887-9.592 14.607-9.683zm9.216 47.59c-19.565 0-35.573-15.524-36.362-34.907h42.836a.05.05 0 0 1 .002.012l.13-.012h29.767c-.79 19.382-16.804 34.907-36.373 34.907z"/></svg>
