<svg xmlns="http://www.w3.org/2000/svg" xmlns:xlink="http://www.w3.org/1999/xlink" xml:space="preserve" version="1.1" style="shape-rendering:geometricPrecision;text-rendering:geometricPrecision;image-rendering:optimizeQuality;" viewBox="0 0 284 355" x="0px" y="0px" fill-rule="evenodd" clip-rule="evenodd"><defs><style type="text/css">
   
    .fil0 {fill:black}
   
  </style></defs><g><path class="fil0" d="M192 154l-67 39c-9,6 -21,-1 -21,-11l0 -79c0,-11 12,-17 21,-12l67 39c9,6 9,19 0,24z"/><path class="fil0" d="M142 0c78,0 142,64 142,142 0,78 -64,142 -142,142 -78,0 -142,-64 -142,-142 0,-78 64,-142 142,-142zm0 26c-64,0 -116,52 -116,116 0,64 52,116 116,116 64,0 116,-52 116,-116 0,-64 -52,-116 -116,-116z"/></g><text x="0" y="299" fill="#000000" font-size="5px" font-weight="bold" font-family="'Helvetica Neue', Helvetica, Arial-Unicode, Arial, Sans-serif">Created by SELicon</text><text x="0" y="304" fill="#000000" font-size="5px" font-weight="bold" font-family="'Helvetica Neue', Helvetica, Arial-Unicode, Arial, Sans-serif">from the Noun Project</text></svg>